<svg width="1920" height="1080" viewBox="0 0 1920 1080" xmlns="http://www.w3.org/2000/svg">
  <!-- Background gradient -->
  <defs>
    <linearGradient id="bgGradient" x1="0%" y1="0%" x2="100%" y2="100%">
      <stop offset="0%" style="stop-color:#FFF8DC;stop-opacity:1" />
      <stop offset="50%" style="stop-color:#F5DEB3;stop-opacity:1" />
      <stop offset="100%" style="stop-color:#DEB887;stop-opacity:1" />
    </linearGradient>
    
    <!-- Camera pattern -->
    <pattern id="cameraPattern" x="0" y="0" width="200" height="200" patternUnits="userSpaceOnUse">
      <rect width="200" height="200" fill="none"/>
      <!-- Camera icon -->
      <g transform="translate(75,75)" opacity="0.1">
        <rect x="0" y="15" width="50" height="35" rx="5" fill="#D4A574"/>
        <circle cx="25" cy="32" r="12" fill="none" stroke="#D4A574" stroke-width="2"/>
        <circle cx="25" cy="32" r="8" fill="none" stroke="#D4A574" stroke-width="1"/>
        <rect x="35" y="20" width="8" height="5" rx="2" fill="#D4A574"/>
      </g>
    </pattern>
    
    <!-- Lens pattern -->
    <pattern id="lensPattern" x="100" y="100" width="300" height="300" patternUnits="userSpaceOnUse">
      <circle cx="150" cy="150" r="40" fill="none" stroke="#E6C068" stroke-width="2" opacity="0.08"/>
      <circle cx="150" cy="150" r="25" fill="none" stroke="#E6C068" stroke-width="1" opacity="0.08"/>
      <circle cx="150" cy="150" r="10" fill="none" stroke="#E6C068" stroke-width="1" opacity="0.08"/>
    </pattern>
  </defs>
  
  <!-- Base background -->
  <rect width="1920" height="1080" fill="url(#bgGradient)"/>
  
  <!-- Pattern overlays -->
  <rect width="1920" height="1080" fill="url(#cameraPattern)"/>
  <rect width="1920" height="1080" fill="url(#lensPattern)"/>
  
  <!-- Decorative elements -->
  <g opacity="0.15">
    <!-- Large camera lens in corner -->
    <circle cx="1600" cy="200" r="80" fill="none" stroke="#D4A574" stroke-width="3"/>
    <circle cx="1600" cy="200" r="60" fill="none" stroke="#D4A574" stroke-width="2"/>
    <circle cx="1600" cy="200" r="40" fill="none" stroke="#D4A574" stroke-width="1"/>
    
    <!-- Photography equipment silhouettes -->
    <g transform="translate(200,800)">
      <!-- Tripod -->
      <line x1="0" y1="0" x2="60" y2="100" stroke="#D4A574" stroke-width="2"/>
      <line x1="120" y1="0" x2="60" y2="100" stroke="#D4A574" stroke-width="2"/>
      <line x1="60" y1="20" x2="60" y2="100" stroke="#D4A574" stroke-width="2"/>
      <rect x="50" y="15" width="20" height="10" rx="2" fill="#D4A574"/>
    </g>
    
    <!-- Film strip -->
    <g transform="translate(100,100)">
      <rect x="0" y="0" width="200" height="30" fill="none" stroke="#D4A574" stroke-width="1"/>
      <rect x="10" y="5" width="15" height="20" fill="#D4A574"/>
      <rect x="35" y="5" width="15" height="20" fill="#D4A574"/>
      <rect x="60" y="5" width="15" height="20" fill="#D4A574"/>
      <rect x="85" y="5" width="15" height="20" fill="#D4A574"/>
    </g>
  </g>
  
  <!-- Subtle light rays -->
  <g opacity="0.1">
    <line x1="0" y1="0" x2="400" y2="400" stroke="#FFD700" stroke-width="1"/>
    <line x1="0" y1="200" x2="600" y2="600" stroke="#FFD700" stroke-width="1"/>
    <line x1="200" y1="0" x2="800" y2="400" stroke="#FFD700" stroke-width="1"/>
  </g>
</svg>
