<svg width="120" height="40" viewBox="0 0 120 40" xmlns="http://www.w3.org/2000/svg">
  <!-- G Letter -->
  <path d="M8 8 Q8 4 12 4 L20 4 Q24 4 24 8 L24 16 Q24 20 20 20 L16 20 L16 16 L20 16 L20 12 L12 12 L12 16 Q12 20 16 20 L20 20 Q24 20 24 24 L24 28 Q24 32 20 32 L12 32 Q8 32 8 28 L8 8 Z" fill="#FFD700"/>
  
  <!-- Curved element -->
  <path d="M28 8 Q32 4 36 8 L40 12 Q44 16 40 20 L36 24 Q32 28 28 24 L24 20 Q20 16 24 12 L28 8 Z" fill="#FFA500"/>
  
  <!-- STUDIOS text -->
  <text x="50" y="25" font-family="Arial, sans-serif" font-size="14" font-weight="bold" fill="#333">STUDIOS</text>
</svg>
